<svg width="202" height="80" viewBox="0 0 202 80" fill="none" xmlns="http://www.w3.org/2000/svg">
<path fill-rule="evenodd" clip-rule="evenodd" d="M9.84737 22.3353L5.85692 22.3353L5.85692 39.2096L-2.74782e-08 39.2096L0 0.817383L5.85692 0.817383L5.85692 16.1948L9.84737 16.1948L9.84737 0.817383L15.7037 0.817383L15.7037 39.2096L9.84737 39.2096L9.84737 22.3353Z" fill="white"/>
<path fill-rule="evenodd" clip-rule="evenodd" d="M25.9714 39.7147L24.8176 39.7147C20.0983 39.7147 17.5815 37.1824 17.5815 32.426L17.5815 24.7235L23.4546 24.7235L23.4546 31.4444C23.4546 33.2019 24.0312 34.1318 25.3948 34.1318C26.8103 34.1318 27.335 33.2019 27.335 30.8237L27.335 29.9449C27.335 27.2058 27.0727 26.2236 24.9232 23.4839L21.1471 18.728C18.6303 15.5227 17.8964 13.0417 17.8964 9.21629L17.8964 7.97605C17.8964 2.8581 20.5175 0.480469 25.1849 0.480469L26.2862 0.480469C31.1623 0.480469 33.0501 2.59946 33.0501 7.14902L33.0501 13.4555L27.335 13.4555L27.335 7.92432C27.335 6.63175 27.0727 5.64954 25.6566 5.64954C24.2411 5.64954 23.9262 6.5283 23.9262 8.33753L23.9262 9.06171C23.9262 11.233 24.346 12.4215 26.3381 14.9544L30.1135 19.7619C32.7877 23.1735 33.6266 25.1385 33.6266 29.48L33.6266 30.7214C33.6266 36.3548 31.1623 39.7147 25.9714 39.7147Z" fill="white"/>
<path fill-rule="evenodd" clip-rule="evenodd" d="M48.8486 0.817383L48.8486 6.38991L41.3718 6.38991L41.3718 16.453L47.2386 16.453L47.2386 22.2843L41.3718 22.2843L41.3718 33.3789L49.1598 33.3789L49.1598 39.2096L35.5044 39.2096L35.5044 0.817383L48.8486 0.817383Z" fill="white"/>
<path fill-rule="evenodd" clip-rule="evenodd" d="M64.4817 26.2579L62.891 12.0663L61.3539 26.2579L64.4817 26.2579ZM65.117 31.9847L60.771 31.9847L59.976 39.2096L54.6216 39.2096L59.4449 0.817383L66.5486 0.817383L71.6908 39.2096L65.9133 39.2096L65.117 31.9847Z" fill="white"/>
<path fill-rule="evenodd" clip-rule="evenodd" d="M78.513 16.6073L80.0974 16.6073C81.7346 16.6073 82.2631 15.5752 82.2631 13.8724L82.2631 8.5058C82.2631 6.85464 81.8931 6.02906 80.0974 6.02906L78.513 6.02906L78.513 16.6073ZM78.513 39.2096L72.5444 39.2096L72.5444 0.817383L82.2108 0.817383C86.1717 0.817383 88.1788 2.46855 88.1788 6.75136L88.1788 13.5626C88.1788 16.7622 86.6467 18.0003 85.5909 18.465C86.911 19.0324 88.1788 20.0651 88.1788 22.6446L88.1788 36.1133C88.1788 37.6611 88.4953 38.3829 88.7602 38.9503L88.7602 39.2096L82.8438 39.2096C82.5796 38.7965 82.2631 38.1259 82.2631 36.0616L82.2631 24.5029C82.2631 22.7995 81.9466 22.0772 80.0445 22.0772L78.513 22.0772L78.513 39.2096Z" fill="white"/>
<path fill-rule="evenodd" clip-rule="evenodd" d="M99.8651 6.38991L99.8651 39.2096L94.0417 39.2096L94.0417 6.38991L89.1016 6.38991L89.1016 0.817383L104.805 0.817383L104.805 6.38991L99.8651 6.38991Z" fill="white"/>
<path fill-rule="evenodd" clip-rule="evenodd" d="M118.421 26.2579L116.83 12.0663L115.293 26.2579L118.421 26.2579ZM119.056 31.9847L114.709 31.9847L113.914 39.2096L108.56 39.2096L113.384 0.817383L120.487 0.817383L125.629 39.2096L119.852 39.2096L119.056 31.9847Z" fill="white"/>
<path fill-rule="evenodd" clip-rule="evenodd" d="M131.958 0.817383L137.003 21.4065L137.003 0.817383L142.358 0.817383L142.358 39.2096L137.575 39.2096L131.958 17.1231L131.958 39.2096L126.654 39.2096L126.654 0.817383L131.958 0.817383Z" fill="white"/>
<path fill-rule="evenodd" clip-rule="evenodd" d="M150.662 33.6359L152.076 33.6359C153.855 33.6359 154.379 32.7077 154.379 30.644L154.379 9.02216C154.379 6.803 153.804 6.02906 152.337 6.02906L150.662 6.02906L150.662 33.6359ZM144.747 0.817383L153.804 0.817383C158.88 0.817383 160.451 3.65498 160.451 8.19658L160.451 31.5723C160.451 36.2676 158.671 39.2096 153.804 39.2096L144.747 39.2096L144.747 0.817383Z" fill="white"/>
<path fill-rule="evenodd" clip-rule="evenodd" d="M5.9153 73.2075L7.32835 73.2075C9.10806 73.2075 9.63186 72.2792 9.63186 70.2155L9.63186 48.5933C9.63186 46.3747 9.05629 45.6002 7.59025 45.6002L5.9153 45.6002L5.9153 73.2075ZM0 40.3884L9.05629 40.3884C14.1329 40.3884 15.7037 43.2267 15.7037 47.7671L15.7037 71.1444C15.7037 75.8392 13.924 78.7807 9.05629 78.7807L-2.74782e-08 78.7807L0 40.3884Z" fill="white"/>
<path fill-rule="evenodd" clip-rule="evenodd" d="M31.2665 40.3884L31.2665 45.9616L23.7903 45.9616L23.7903 56.0237L29.6571 56.0237L29.6571 61.8557L23.7903 61.8557L23.7903 72.9505L31.5782 72.9505L31.5782 78.7807L17.9229 78.7807L17.9229 40.3884L31.2665 40.3884Z" fill="white"/>
<path fill-rule="evenodd" clip-rule="evenodd" d="M41.1628 79.2855L40.009 79.2855C35.2897 79.2855 32.7729 76.7527 32.7729 71.9964L32.7729 64.2948L38.646 64.2948L38.646 71.0148C38.646 72.7723 39.2226 73.7027 40.5856 73.7027C42.0017 73.7027 42.5264 72.7723 42.5264 70.3947L42.5264 69.516C42.5264 66.7764 42.2641 65.7942 40.1146 63.0546L36.3385 58.2982C33.8218 55.0937 33.0878 52.6133 33.0878 48.7886L33.0878 47.5472C33.0878 42.4294 35.7089 40.0513 40.3763 40.0513L41.4776 40.0513C46.3537 40.0513 48.2415 42.172 48.2415 46.7196L48.2415 53.0271L42.5264 53.0271L42.5264 47.4955C42.5264 46.203 42.2641 45.2208 40.848 45.2208C39.4325 45.2208 39.1176 46.0995 39.1176 47.9087L39.1176 48.6328C39.1176 50.8035 39.5374 51.9932 41.5295 54.5253L45.3049 59.3321C47.9791 62.7442 48.818 64.7086 48.818 69.0511L48.818 70.2919C48.818 75.9251 46.3537 79.2855 41.1628 79.2855Z" fill="white"/>
<mask id="mask0_244_351" style="mask-type:alpha" maskUnits="userSpaceOnUse" x="50" y="40" width="25" height="40">
<path d="M50.3765 40.0671L74.3263 40.0671L74.3263 79.2492L50.3765 79.2492L50.3765 40.0671Z" fill="white"/>
</mask>
<g mask="url(#mask0_244_351)">
<path fill-rule="evenodd" clip-rule="evenodd" d="M50.3765 78.7693L56.3507 78.7693L56.3507 40.4285L50.3765 40.4285L50.3765 78.7693Z" fill="white"/>
<path fill-rule="evenodd" clip-rule="evenodd" d="M64.1232 79.2852C60.6341 79.2852 58.4141 76.2451 58.4141 72.2767L58.4141 48.3126C58.4141 44.0361 60.1057 40.0671 65.7625 40.0671L66.9251 40.0671C73.3226 40.0671 74.0626 44.1386 74.0626 48.6742L74.0626 52.591L68.2471 52.591L68.2471 48.2611C68.2471 46.5611 67.8238 45.6335 66.3444 45.6335C65.0754 45.6335 64.4935 46.5611 64.4935 48.2611L64.4935 70.6793C64.4935 72.4824 65.2335 73.4106 66.4496 73.4106C67.9832 73.4106 68.6697 72.3799 68.6697 70.9366L68.6697 61.3515L65.9735 61.3515L65.9735 55.4764L74.3265 55.4764L74.3265 78.7695L70.9432 78.7695C70.8903 78.5632 70.4148 76.657 69.9387 75.008C69.5155 76.2966 67.5064 79.2852 64.4935 79.2852L64.1232 79.2852Z" fill="white"/>
</g>
<path fill-rule="evenodd" clip-rule="evenodd" d="M81.6033 40.3884L86.6476 60.9773L86.6476 40.3884L92.003 40.3884L92.003 78.7807L87.2194 78.7807L81.6033 56.6944L81.6033 78.7807L76.2993 78.7807L76.2993 40.3884L81.6033 40.3884Z" fill="white"/>
<path fill-rule="evenodd" clip-rule="evenodd" d="M107.562 79.2855L106.408 79.2855C101.689 79.2855 99.1719 76.7527 99.1719 71.9964L99.1719 64.2948L105.045 64.2948L105.045 71.0148C105.045 72.7723 105.622 73.7027 106.985 73.7027C108.401 73.7027 108.925 72.7723 108.925 70.3947L108.925 69.516C108.925 66.7764 108.663 65.7942 106.512 63.0546L102.737 58.2982C100.221 55.0937 99.4867 52.6133 99.4867 48.7886L99.4867 47.5472C99.4867 42.4294 102.108 40.0513 106.775 40.0513L107.877 40.0513C112.753 40.0513 114.64 42.172 114.64 46.7196L114.64 53.0271L108.925 53.0271L108.925 47.4955C108.925 46.203 108.663 45.2208 107.247 45.2208C105.831 45.2208 105.517 46.0995 105.517 47.9087L105.517 48.6328C105.517 50.8035 105.936 51.9932 107.928 54.5253L111.704 59.3321C114.378 62.7442 115.217 64.7086 115.217 69.0511L115.217 70.2919C115.217 75.9251 112.753 79.2855 107.562 79.2855Z" fill="white"/>
<path fill-rule="evenodd" clip-rule="evenodd" d="M126.52 71.0257L126.52 62.095L132.287 62.095L132.287 70.9741C132.287 75.1048 130.936 79.2855 125.274 79.2855L123.975 79.2855C118.052 79.2855 116.754 75.0526 116.754 71.1813L116.754 47.7434C116.754 43.821 118.468 40.0513 123.767 40.0513L125.118 40.0513C131.56 40.0513 132.287 44.2854 132.287 48.0539L132.287 54.9189L126.52 54.9189L126.52 48.1566C126.52 46.5048 126.001 45.6272 124.547 45.6272C123.091 45.6272 122.728 46.4538 122.728 48.1566L122.728 70.9741C122.728 72.6775 123.299 73.6068 124.598 73.6068C126.001 73.6068 126.52 72.5742 126.52 71.0257Z" fill="white"/>
<path fill-rule="evenodd" clip-rule="evenodd" d="M144.011 61.9073L140.02 61.9073L140.02 78.7807L134.164 78.7807L134.164 40.3884L140.02 40.3884L140.02 55.7661L144.011 55.7661L144.011 40.3884L149.868 40.3884L149.868 78.7807L144.011 78.7807L144.011 61.9073Z" fill="white"/>
<path fill-rule="evenodd" clip-rule="evenodd" d="M162.267 48.5699C162.267 46.5565 161.585 45.6272 160.221 45.6272C158.7 45.6272 158.121 46.6087 158.121 48.5699L158.121 70.6647C158.121 72.3166 158.594 73.6068 160.273 73.6068C161.848 73.6068 162.267 72.3166 162.267 70.6647L162.267 48.5699ZM168.303 70.2521C168.303 75.6202 166.465 79.2855 160.746 79.2855L159.748 79.2855C154.081 79.2855 152.087 75.6202 152.087 70.2521L152.087 48.8792C152.087 43.5622 154.134 40.0513 159.696 40.0513L160.693 40.0513C166.465 40.0513 168.303 43.5622 168.303 48.8276L168.303 70.2521Z" fill="white"/>
<path fill-rule="evenodd" clip-rule="evenodd" d="M180.191 48.5699C180.191 46.5565 179.508 45.6272 178.144 45.6272C176.622 45.6272 176.045 46.6087 176.045 48.5699L176.045 70.6647C176.045 72.3166 176.517 73.6068 178.196 73.6068C179.771 73.6068 180.191 72.3166 180.191 70.6647L180.191 48.5699ZM186.226 70.2521C186.226 75.6202 184.389 79.2855 178.668 79.2855L177.671 79.2855C172.003 79.2855 170.01 75.6202 170.01 70.2521L170.01 48.8792C170.01 43.5622 172.056 40.0513 177.619 40.0513L178.617 40.0513C184.389 40.0513 186.226 43.5622 186.226 48.8276L186.226 70.2521Z" fill="white"/>
<path fill-rule="evenodd" clip-rule="evenodd" d="M194.362 40.3884L194.362 72.8466L201.588 72.8466L201.588 78.7807L188.444 78.7807L188.444 40.3884L194.362 40.3884Z" fill="white"/>
</svg>
