<svg width="234" height="261" viewBox="0 0 234 261" fill="none" xmlns="http://www.w3.org/2000/svg">
<path d="M4.15497 42.3079C3.15338 41.1201 2.52499 40.2849 2.26981 39.8024C2.09876 39.4916 2.1163 39.1886 2.32244 38.8935C2.52857 38.5983 2.88871 38.234 3.40285 37.8005L4.78571 36.6345C5.07944 36.0834 7.05238 34.2682 10.7045 31.1887C11.6974 30.3515 14.7916 27.8334 19.9872 23.6345C22.9695 21.2715 28.3626 17.0728 36.1665 11.0386C37.0464 10.1754 37.7965 9.48215 38.417 8.95893C39.729 7.85269 40.6128 7.42593 41.0686 7.67865C41.3665 7.85211 41.6575 8.10726 41.9416 8.44411L42.875 9.65907C42.9647 9.76544 43.1217 9.9516 43.3459 10.2175C43.6028 10.4862 43.8298 10.7195 44.027 10.9173C44.239 11.1328 44.3974 11.3026 44.502 11.4267C44.8758 11.87 45.0258 12.1378 44.9521 12.2303C45.1342 12.4104 45.3654 12.5946 45.6456 12.783C46.3566 13.5182 47.0409 14.2759 47.6987 15.056C48.5508 16.0665 49.3586 17.1144 50.122 18.1997C51.0798 19.5155 52.6743 21.5684 54.9056 24.3585L54.9546 24.3626L55.5418 25.0051C57.9187 27.824 59.2278 29.5564 59.4691 30.2023C57.1911 31.6378 55.5468 32.7815 54.5362 33.6336L53.8672 34.2433C52.9453 35.0206 51.2694 36.3427 48.8395 38.2096C46.1176 40.4138 43.5333 42.5473 41.0867 44.6103C39.0302 46.3444 37.0595 48.0364 35.1746 49.6864C33.2189 51.3961 31.1861 53.1405 29.0764 54.9194C26.5234 57.0721 23.8594 59.2729 21.0843 61.5219C20.1661 60.9007 19.1764 59.9607 18.115 58.702C17.3376 57.7801 16.8297 56.9798 16.5912 56.3013C17.3111 54.9965 18.5514 53.5715 20.3122 52.0262C22.0906 50.4659 23.5737 49.185 24.7616 48.1834C25.9672 47.1669 27.1536 46.1816 28.321 45.2277C29.506 44.2588 30.524 43.4155 31.375 42.698L32.5185 41.7337C33.5468 40.8667 38.2671 37.1292 46.6793 30.5214L47.3749 29.8893C47.5877 29.7099 47.7547 29.5843 47.876 29.5123C47.9973 29.4403 48.0935 29.3745 48.1644 29.3147C48.3417 29.1652 48.3719 29.0032 48.2551 28.8287L47.7128 28.2394C47.5904 28.1303 47.4544 27.9871 47.305 27.8098C45.9578 26.428 44.5855 25.0522 43.1879 23.6826C40.3507 20.8575 38.8125 19.3031 38.5733 19.0194C38.3342 18.7357 38.1581 18.5809 38.0451 18.5548C37.9498 18.5138 37.8136 18.568 37.6363 18.7175L37.446 18.9235L37.0736 19.2374C35.9811 20.28 33.7483 22.3447 30.3752 25.4315L29.117 26.5835C27.9646 27.5552 26.753 28.5465 25.4821 29.5575C24.353 30.4489 23.2477 31.3505 22.1662 32.2624C20.5529 33.6228 19.0212 34.9901 17.5713 36.3644C16.7978 37.1379 15.9767 37.8909 15.108 38.6234C14.4875 39.1466 13.8432 39.6596 13.175 40.1623C12.5069 40.665 11.8626 41.178 11.2421 41.7012C10.4797 42.344 9.7398 43.0134 9.0223 43.7094L8.56603 44.1396C7.82142 44.7675 7.14371 44.8991 6.53289 44.5345C5.9193 44.2025 5.12666 43.4603 4.15497 42.3079Z" fill="white"/>
<path d="M46.1492 78.5797C49.7968 82.9056 53.8842 83.7058 58.4113 80.9805C59.0562 80.5581 59.7944 80.1025 60.6259 79.6137C62.9842 78.2015 64.5978 77.1291 65.4665 76.3966C70.6611 72.0166 73.8645 66.3418 75.2847 59.3202C75.2562 58.8201 75.1687 58.502 75.0985 58.1669C74.9945 57.6479 74.6581 57.2406 74.3143 56.8328C74.0452 56.5137 73.7479 56.161 73.0441 55.5752C71.179 54.4784 69.8027 54.0545 69.0595 53.8925C66.8374 53.7035 64.1774 54.3083 61.0797 55.707C57.982 57.1056 55.591 58.5151 53.9067 59.9352L50.9507 62.4733C49.3551 63.8187 48.8713 64.3576 46.7373 66.4886C45.9234 67.699 45.9337 67.2799 45.2326 68.7508C44.3253 70.5168 43.7954 71.813 43.6428 72.6394C43.4962 73.9764 44.0877 75.6313 45.4175 77.6041C45.6512 77.9531 45.895 78.2783 46.1492 78.5797ZM37.1844 81.8162C34.8207 77.5302 34.8308 74.2689 35.1612 69.6981C35.5926 68.303 35.8169 66.9377 37.3204 64.5476C38.8238 62.1575 40.4427 59.9583 42.177 57.95C42.9233 57.1083 43.6156 56.4184 44.2539 55.8802C45.1049 55.1627 45.8491 54.7322 46.4867 54.589C46.761 54.2667 47.1108 53.9262 47.5363 53.5674C48.476 52.7751 50.0022 51.7612 52.1151 50.5256C54.228 49.29 56.6029 48.1672 59.2397 47.1572C61.8914 46.165 63.8373 45.8286 65.0773 46.148C66.6445 45.5243 68.889 45.7399 71.8109 46.7949C74.7506 47.8349 77.1177 49.2212 78.9123 50.9537L80.252 52.3267C80.7536 52.8137 81.1689 53.2522 81.4978 53.6423C81.794 54.0295 82.0492 54.512 82.2633 55.0898C82.7703 56.4824 83.1298 58.06 83.3419 59.8225C83.6142 62.232 83.5223 63.7958 83.0662 64.5141C83.1351 65.639 82.7686 66.9491 81.9666 68.4443C81.1974 69.9423 80.4065 71.3068 79.5941 72.5378C78.7995 73.7539 78.4237 74.2314 78.17 74.7074C77.4003 75.6294 76.8035 76.711 76.0964 77.6712C74.6562 79.7046 72.9685 81.5523 71.0333 83.2145C70.7197 83.4182 70.3646 83.6266 69.968 83.8397C69.5891 84.0379 69.2783 84.209 69.0356 84.3529C68.6811 84.6519 69.6852 84.5224 69.5704 84.7102C69.4884 84.9007 69.1875 85.033 67.7482 85.848C65.8174 86.9412 65.8081 86.9157 65.3134 87.1205C64.8187 87.3252 64.3986 87.5955 63.9515 87.8208C61.7229 89.063 59.1327 89.9124 56.1809 90.3689C53.2441 90.8432 50.3752 90.7597 48.0088 89.752C45.8322 89.2212 43.729 88.128 41.2976 86.1438C39.6657 84.8201 38.3056 83.1459 37.1844 81.8162Z" fill="white"/>
<path d="M89.0734 57.8949C89.8096 58.1612 90.0569 59.0783 89.5544 59.6786L79.9477 71.1561C79.3262 71.8987 78.1193 71.5636 77.9695 70.6069L75.4875 54.7568C75.3549 53.9099 76.1786 53.2307 76.9848 53.5223L89.0734 57.8949Z" fill="white"/>
<path d="M74.108 40.0589C74.0245 39.2279 73.098 38.7731 72.3895 39.2152L59.3644 47.343C58.5423 47.856 58.7076 49.0984 59.6352 49.3786L73.9111 53.6912C74.6806 53.9236 75.4392 53.2991 75.3587 52.4992L74.108 40.0589Z" fill="white"/>
<path d="M75.362 126.033L75.0417 125.653C74.6603 125.201 74.4434 124.889 74.3909 124.716L74.1776 123.968L89.1638 109.242L88.2071 108.052C87.5969 107.329 87.0102 106.725 86.4468 106.24C85.5727 105.461 84.9374 104.836 84.5408 104.365C83.9153 103.624 83.2589 102.753 82.5714 101.754L80.9454 99.5504C79.488 100.686 78.1907 101.718 77.0535 102.646C74.7065 104.563 71.8866 106.709 68.5938 109.083C68.3071 109.294 68.0099 109.529 67.7022 109.788L65.8207 111.468C65.2416 111.956 64.6953 112.355 64.1818 112.664C63.8576 112.133 63.4362 111.559 62.9176 110.944L62.0896 110.017C61.6387 109.593 61.2684 109.209 60.9785 108.865C60.7497 108.594 60.5738 108.293 60.4507 107.964C60.3057 107.498 60.8665 106.731 62.1333 105.663C62.7667 105.129 63.6192 104.487 64.6908 103.738C73.4523 95.7316 78.4317 91.208 79.629 90.1675C83.0426 87.1654 86.1066 84.5198 88.8212 82.2309C92.4949 79.1332 94.6342 77.4841 95.2392 77.2835L96.9493 75.8415C97.5827 75.3074 98.0662 75.0546 98.3997 75.0829C98.7484 75.1293 99.6321 75.9937 101.051 77.6761C101.935 78.7253 102.495 79.5538 102.728 80.1615C102.987 80.872 102.727 81.5554 101.949 82.2115L101.542 82.5549C100.718 83.1568 99.9168 83.7858 99.1386 84.4419C98.5052 84.976 97.8781 85.5358 97.2571 86.1213L95.6241 87.5447C94.6649 88.3535 93.6934 89.1108 92.7094 89.8166C91.8883 90.3852 90.5729 91.4324 88.7633 92.9583C87.9127 93.6755 87.2479 94.2825 86.7688 94.7793C88.4698 97.0903 90.2355 99.3313 92.0659 101.502C92.8897 102.479 93.7391 103.45 94.6142 104.414C95.1543 103.99 95.7682 103.488 96.4559 102.908L98.8218 100.866C99.8047 99.9756 100.812 99.0953 101.843 98.2256C103.201 97.0811 104.852 95.7349 106.798 94.1869C108.762 92.6237 110.455 91.5833 111.876 91.0657C112.505 91.371 113.133 91.8946 113.758 92.6363C114.597 93.6312 115.227 94.6168 115.648 95.5931L103.955 105.963C101.116 108.728 98.3483 111.248 95.6518 113.521C94.4212 114.559 93.3035 115.455 92.2986 116.21C92.1473 116.801 90.8055 118.258 88.2729 120.579C86.9823 121.729 86.0113 122.579 85.3598 123.128C84.9436 123.479 84.5226 123.788 84.0968 124.054C83.6862 124.338 83.2652 124.647 82.8337 124.98C82.1641 125.544 81.4408 126.247 80.6637 127.088C80.2208 127.554 79.8079 127.964 79.4251 128.318L78.6437 129.209C78.0203 128.837 76.9264 127.779 75.362 126.033Z" fill="white"/>
<path d="M85.0944 137.576C84.8656 137.304 84.6653 136.993 84.4937 136.643C84.3373 136.31 84.4895 135.903 84.9505 135.422C85.9688 134.904 86.9366 134.289 87.8539 133.577L89.1398 132.679C90.0266 131.931 90.8785 131.197 91.6958 130.477C93.3302 129.037 94.9798 127.615 96.6448 126.211C100.21 123.205 103.878 120.267 107.65 117.396C111.851 114.225 115.435 111.389 118.403 108.886C120.339 107.253 121.913 105.833 123.125 104.626L123.654 104.923C123.776 105.068 123.861 105.15 123.91 105.171C123.958 105.192 123.99 105.212 124.005 105.23C124.078 105.169 124.282 105.337 124.617 105.735C125.212 106.441 125.612 106.878 125.816 107.046C126.035 107.233 126.229 107.426 126.396 107.625C126.64 107.914 126.867 108.311 127.076 108.816L127.379 109.396L127.905 110.02C128.119 110.273 128.328 110.577 128.533 110.93L127.537 111.677C125.605 112.873 123.607 114.341 121.544 116.081L118.712 118.561C117.337 119.721 115.995 120.774 114.689 121.722L107.612 126.714C107.576 126.744 107.541 126.758 107.507 126.755C107.507 126.755 107.473 126.769 107.403 126.797C107.172 127.147 106.857 127.49 106.459 127.825C105.807 128.375 103.74 129.87 100.256 132.312C100.807 132.157 101.739 131.867 103.052 131.441L113.778 127.968C118.561 126.442 121.184 125.716 121.648 125.789C122.367 125.43 123.234 125.117 124.248 124.851C125.04 124.616 126.087 124.26 127.387 123.782C128.95 123.176 130.008 122.888 130.56 122.918L130.668 122.826C130.976 122.567 131.598 122.258 132.536 121.901C133.561 121.501 134.135 121.374 134.257 121.518L134.279 121.545C134.878 121.227 135.463 121.058 136.036 121.04C136.627 121.006 137.113 121.215 137.494 121.667L137.608 121.803C138.486 122.734 139.566 123.959 140.847 125.479C141.427 126.166 141.775 126.616 141.891 126.827L139.317 128.952C139.176 129.225 138.038 130.262 135.902 132.063C135.305 132.566 134.483 133.244 133.436 134.096C132.389 134.947 131.309 135.796 130.196 136.642C129.116 137.491 128.497 137.951 128.34 138.022L126.16 139.953C124.05 142.041 121.665 144.207 119.005 146.45C116.345 148.693 113.835 150.748 111.476 152.613L108.978 154.719C106.445 156.855 104.638 158.146 103.559 158.592C103.358 158.39 103.138 158.204 102.901 158.032C102.697 157.864 102.341 157.515 101.831 156.984L100.473 155.483C100.107 155.049 99.8075 154.621 99.5748 154.198C99.2439 153.548 99.3951 152.956 100.029 152.422L100.164 152.308C101.329 151.45 103.598 149.66 106.971 146.94L117.899 138.143C119.739 136.653 122.087 134.829 124.941 132.669C123.864 132.897 122.215 133.328 119.994 133.962C114.348 135.566 110.623 136.803 108.819 137.675C108.574 137.788 107.499 138.184 105.594 138.862C103.171 139.698 101.706 140.128 101.201 140.152L98.6453 140.867C95.287 141.842 93.4493 142.416 93.132 142.591C92.6775 142.603 92.2841 142.687 91.9516 142.844C91.298 143.023 90.7726 143.079 90.3752 143.012C89.9817 143.096 89.3807 142.659 88.5723 141.7C88.1452 141.194 87.7209 140.654 87.2995 140.08L86.5029 139.081C86.2741 138.809 86.082 138.6 85.9266 138.452C85.6311 138.175 85.3537 137.883 85.0944 137.576Z" fill="white"/>
<path d="M132.826 195.78C132.475 195.364 132.144 194.916 131.832 194.436C131.563 194.044 131.314 193.712 131.085 193.441C130.31 192.485 129.792 191.76 129.532 191.268C129.287 190.794 129.272 190.373 129.489 190.005C129.738 189.64 130.208 189.15 130.899 188.537L131.061 188.4C132.039 187.576 133.393 186.171 135.124 184.185C136.952 182.056 139.044 179.781 141.4 177.361C143.883 174.834 145.597 172.956 146.541 171.726C144.731 172.076 139.508 174.437 130.871 178.81C125.764 181.383 122.902 182.744 122.285 182.893L121.202 181.995C121.674 180.792 122.366 179.482 123.276 178.065L124.307 176.313C124.792 175.347 125.349 174.428 125.978 173.558C126.64 172.69 127.229 171.791 127.745 170.861C128.41 169.557 129.964 167.287 132.407 164.051C132.897 163.421 133.333 162.837 133.715 162.298C134.112 161.777 134.461 161.328 134.762 160.951C134.996 160.568 135.134 160.327 135.176 160.23C135.218 160.133 135.216 160.057 135.17 160.003C135.125 159.949 135.105 159.888 135.11 159.822L127.768 162.902C125.978 163.606 124.147 164.392 122.277 165.257L120.545 166.068C118.081 167.185 116.266 168.081 115.1 168.755C113.756 169.547 112.817 169.921 112.284 169.876C111.85 169.839 111.359 169.495 110.81 168.844C110.001 167.885 109.403 167.028 109.013 166.273C108.784 165.817 108.641 165.225 108.585 164.498L108.992 164.155C109.752 163.514 111.164 162.525 113.226 161.189C115.306 159.837 117.479 158.485 119.744 157.132C122.043 155.782 123.551 155.036 124.268 154.896C124.346 154.768 124.476 154.628 124.657 154.475C124.965 154.216 125.472 153.881 126.179 153.47C127.737 152.528 129.262 151.784 130.753 151.239C131.849 150.593 133.306 149.86 135.122 149.04C137.592 147.855 139.043 147.08 139.478 146.714C139.784 146.673 140.768 146.261 142.43 145.478C144.788 144.419 147.424 143.341 150.34 142.244C153.27 141.166 155.391 140.817 156.702 141.197C156.384 142.766 155.66 144.166 154.53 145.397C153.985 146.073 153.477 146.81 153.006 147.61C149.716 153.109 145.322 159.336 139.824 166.293L139.03 167.334C139.851 167.354 140.999 166.989 142.474 166.241C144.245 165.367 150.155 163.618 160.204 160.994C163.778 160.055 166.213 159.472 167.509 159.246C168.838 159.023 169.693 159.138 170.074 159.59C170.227 159.771 170.342 159.999 170.419 160.274C170.41 160.374 169.636 161.182 168.096 162.697C163.365 167.368 160.727 170.335 160.182 171.599C159.723 171.862 159.213 172.23 158.652 172.703C157.53 173.649 155.794 175.392 153.445 177.93C152.424 179.069 151.556 179.987 150.842 180.682L140.94 190.145C140.535 190.951 138.912 192.551 136.071 194.947C134.985 195.863 134.27 196.373 133.925 196.478C133.543 196.429 133.177 196.196 132.826 195.78Z" fill="white"/>
<path d="M154.124 220.708L153.51 219.925C152.569 218.552 151.867 217.334 151.403 216.27C152.046 215.233 153.806 213.501 156.683 211.075C159.145 209 161.286 207.426 163.107 206.355C163.264 206.284 163.37 206.226 163.425 206.18C163.479 206.134 163.516 206.087 163.537 206.039C163.576 205.975 163.599 205.909 163.604 205.843C163.628 205.761 163.653 205.662 163.68 205.547L161.624 206.027C154.342 207.71 150.402 208.509 149.805 208.425C149.239 208.562 148.507 208.777 147.608 209.07C146.501 209.446 145.848 209.626 145.647 209.609C145.16 209.215 144.276 208.258 142.995 206.739C140.875 204.224 139.775 202.644 139.695 201.999C139.737 201.902 139.803 201.815 139.894 201.739C140.491 201.235 142.193 200.775 145 200.358C148.198 199.891 150.046 199.787 150.544 200.048C150.918 199.794 152.14 199.554 154.208 199.326C156.277 199.099 158.488 198.875 160.841 198.655L164.394 198.352C164.12 197.623 163.743 196.827 163.263 195.963C162.8 195.084 162.384 194.15 162.015 193.161C161.772 192.469 161.523 191.642 161.269 190.68C161.015 189.717 160.89 188.926 160.892 188.305C160.513 186.643 160.754 185.001 161.615 183.378C162.478 181.721 163.38 180.496 164.321 179.702C164.792 179.306 165.299 178.971 165.843 178.698C165.956 178.355 166.194 178.031 166.556 177.725C168.456 176.123 170.626 175.006 173.064 174.373C174.919 173.892 176.575 173.982 178.03 174.643C178.823 174.408 179.842 174.57 181.087 175.13C182.366 175.692 183.59 176.409 184.759 177.28C185.945 178.137 186.813 178.891 187.362 179.542L188.808 181.202C191.539 184.44 194.012 187.832 196.229 191.38L195.361 192.112C194.275 193.028 192.347 194.56 189.577 196.71C189.233 197 188.829 197.31 188.364 197.64C187.256 198.42 186.268 199.176 185.399 199.908C184.639 200.549 184.041 201.162 183.605 201.746C180.882 203.547 176.869 206.683 171.566 211.154L170.644 211.932C168.056 214.114 165.362 216.153 162.564 218.049C161.957 218.467 161.097 219.1 159.983 219.946C157.989 221.473 156.827 222.298 156.497 222.421C155.662 222.166 154.871 221.595 154.124 220.708ZM171.887 196.166L173.081 197.527C173.874 196.889 174.537 196.408 175.068 196.083C175.748 195.604 176.25 195.226 176.576 194.952C176.956 194.631 177.387 194.206 177.869 193.676C178.107 193.444 178.416 193.168 178.796 192.848C179.864 191.947 181.379 190.825 183.341 189.48C184.412 188.731 185.231 188.196 185.795 187.874L185.09 186.983C181.475 182.695 177.962 181.154 174.55 182.359C173.308 182.943 172.307 183.555 171.547 184.196C170.732 184.882 170.046 185.941 169.487 187.371C168.83 188.978 168.79 190.529 169.368 192.022C169.964 193.5 170.804 194.882 171.887 196.166Z" fill="white"/>
<path d="M180.958 239.251C184.68 243.666 188.784 244.54 193.268 241.873C193.906 241.459 194.637 241.013 195.461 240.535C197.797 239.153 199.393 238.101 200.25 237.379C205.374 233.058 208.588 227.377 209.891 220.335C209.686 219.95 209.546 219.588 209.47 219.25C209.357 218.726 209.125 218.256 208.774 217.84C208.5 217.514 208.046 217.153 207.414 216.758C205.529 215.623 204.214 214.968 203.467 214.792C201.241 214.565 198.589 215.129 195.513 216.484C192.437 217.84 190.068 219.218 188.407 220.619L185.492 223.123C183.918 224.451 182.377 225.657 180.869 226.743C180.884 227.009 180.553 227.876 179.876 229.345C178.998 231.107 178.489 232.402 178.351 233.231C178.226 234.574 178.846 236.25 180.21 238.257C180.449 238.612 180.699 238.944 180.958 239.251ZM172.043 242.358C168.961 238.703 167.973 234.8 169.08 230.647C169.488 229.25 170.424 227.362 171.889 224.982C173.353 222.602 174.936 220.416 176.637 218.424C177.37 217.59 178.051 216.907 178.68 216.376C179.52 215.668 180.257 215.248 180.893 215.114C181.162 214.795 181.506 214.458 181.926 214.104C182.853 213.322 184.363 212.328 186.456 211.12C188.55 209.912 190.907 208.822 193.528 207.85C196.165 206.896 198.106 206.59 199.353 206.932C200.91 206.331 203.16 206.585 206.101 207.696C209.06 208.792 211.452 210.227 213.276 212.001L214.64 213.405C215.15 213.903 215.573 214.351 215.908 214.75C216.211 215.144 216.475 215.634 216.699 216.219C217.229 217.629 217.616 219.223 217.857 221C218.17 223.429 218.105 225.001 217.66 225.717C217.748 226.85 217.403 228.162 216.626 229.653C215.882 231.148 215.113 232.508 214.321 233.733C213.546 234.943 213.131 235.711 213.076 236.036C212.322 236.951 211.599 237.886 210.907 238.84C209.501 240.862 207.843 242.693 205.934 244.333C205.624 244.533 205.272 244.737 204.879 244.945C204.503 245.138 204.195 245.305 203.955 245.445C203.605 245.74 203.374 245.981 203.263 246.168C203.184 246.359 202.993 246.612 202.692 246.928C201.994 247.485 201.207 247.917 200.329 248.224C199.837 248.422 199.37 248.631 198.926 248.85C196.717 250.063 194.139 250.874 191.194 251.284C188.263 251.712 185.605 251.399 183.221 250.345C181.034 249.774 178.708 248.47 176.241 246.432C174.586 245.073 173.187 243.715 172.043 242.358Z" fill="white"/>
<line x1="1.30818" y1="-1.30818" x2="16.0135" y2="-1.30818" transform="matrix(0.228495 0.973545 -0.896029 0.443995 48.2656 42.3501)" stroke="white" stroke-width="2.61635" stroke-linecap="round"/>
<line x1="1.30818" y1="-1.30818" x2="15.8884" y2="-1.30818" transform="matrix(0.908012 0.418943 0.603525 -0.797344 39.0801 50.7253)" stroke="white" stroke-width="2.61635" stroke-linecap="round"/>
<line x1="1.30818" y1="-1.30818" x2="15.0732" y2="-1.30818" transform="matrix(0.620111 0.784514 -0.77426 0.632867 42.4531 45.9917)" stroke="white" stroke-width="2.61635" stroke-linecap="round"/>
<line x1="1.30818" y1="-1.30818" x2="16.0135" y2="-1.30818" transform="matrix(-0.92096 -0.389657 -0.588966 0.808158 82.6108 83.0815)" stroke="white" stroke-width="2.61635" stroke-linecap="round"/>
<line x1="1.30818" y1="-1.30818" x2="15.8884" y2="-1.30818" transform="matrix(-0.259548 -0.96573 0.88783 -0.460171 72.8042 90.7207)" stroke="white" stroke-width="2.61635" stroke-linecap="round"/>
<line x1="1.30818" y1="-1.30818" x2="15.0732" y2="-1.30818" transform="matrix(-0.668497 -0.743715 -0.754556 0.656235 78.0396 88.1956)" stroke="white" stroke-width="2.61635" stroke-linecap="round"/>
</svg>
